<svg width="124px" height="68px" viewBox="0 0 124 68">
  <g id="Page-1" stroke="none" stroke-width="1" fill="none" fill-rule="evenodd">
    <g id="Sprawsm-Discussion" transform="translate(-1041.000000, -764.000000)" stroke="#FFFFFF">
      <g id="cta" transform="translate(1042.000000, 765.000000)">
        <path d="M36,15.0800163 C69.4475109,13.651933 98.5438583,31.4016029 118.261719,63.3476562" id="arrow-line" stroke-width="4" stroke-linecap="round" stroke-linejoin="round"></path>
        <path d="M101.467773,63.7094727 C101.467773,63.7094727 107.861542,61.8101205 111.015869,61.8847656 C113.948456,61.9541634 119.728516,64.1416016 119.728516,64.1416016 C119.728516,64.1416016 118.723184,59.2151742 118.86084,56.4111328 C119.001667,53.5424854 120.563965,47.1235352 120.563965,47.1235352" id="arrow-head" stroke-width="4" stroke-linecap="round" stroke-linejoin="round"></path>
        <path d="M12.2571429,2.93714286 C12.1123802,3.03619097 11.9980957,3.08571429 11.9142857,3.08571429 C11.7466658,3.08571429 11.6857141,2.93714434 11.7314286,2.64 C11.8457149,2.35047474 11.9028571,2.18666686 11.9028571,2.14857143 C11.9028571,1.53142549 10.8133442,1.22285714 8.63428571,1.22285714 C7.16380217,1.22285714 5.43810514,1.64571006 3.45714286,2.49142857 C2.98475954,2.72762023 2.32571851,3.05142651 1.48,3.46285714 C0.847615886,3.7523824 0.4438104,3.89714286 0.268571429,3.89714286 C-0.1428592,3.89714286 -0.348571429,3.71428754 -0.348571429,3.34857143 C-0.348571429,2.97523623 0.546657714,2.45714617 2.33714286,1.79428571 C3.64000651,1.31428331 4.75999531,0.960001143 5.69714286,0.731428571 C6.89333931,0.434284229 8.043804,0.285714286 9.14857143,0.285714286 C9.88762274,0.285714286 10.5999966,0.392379886 11.2857143,0.605714286 C12.2609573,0.902858629 12.7485714,1.34475897 12.7485714,1.93142857 C12.7485714,2.38857371 12.5847635,2.72380846 12.2571429,2.93714286 L12.2571429,2.93714286 Z M8.06285714,15.6914286 C7.91809451,15.8285721 7.74666766,15.8971429 7.54857143,15.8971429 C6.61142389,15.8971429 5.914288,15.0971509 5.45714286,13.4971429 C5.14476034,12.4076136 4.98857143,11.2457205 4.98857143,10.0114286 L4.98857143,8.09142857 C4.98857143,8.08380949 5.08380857,6.5066824 5.27428571,3.36 C5.34285749,2.293328 5.6323784,1.75619051 6.14285714,1.74857143 C6.54666869,1.74095234 6.74857143,1.96952149 6.74857143,2.43428571 C6.74857143,2.68571554 6.68381017,3.02856926 6.55428571,3.46285714 C6.401904,4.0190504 6.31428583,4.36190411 6.29142857,4.49142857 C5.99428423,6.15238926 5.921904,8.09141749 6.07428571,10.3085714 C6.11238114,10.9561937 6.22666571,11.9238031 6.41714286,13.2114286 C6.57714366,13.8590509 6.73333257,14.3085702 6.88571429,14.56 C7.12190594,14.9333352 7.46475966,15.1390474 7.91428571,15.1771429 C8.10476286,15.2000001 8.2,15.2799993 8.2,15.4171429 C8.2,15.5314291 8.15428617,15.6228568 8.06285714,15.6914286 L8.06285714,15.6914286 Z M12.0971431,8.86857143 C13.0419097,6.46094034 14.0552329,5.25714286 15.1371431,5.25714286 C15.8533372,5.25714286 16.2723806,5.58475863 16.394286,6.24 C16.4628577,6.63619246 16.3333352,6.83428571 16.0057145,6.83428571 C15.8990473,6.83428571 15.8228576,6.78857189 15.7771431,6.69714286 C15.7466668,6.62857109 15.7161909,6.53333394 15.6857145,6.41142857 L15.6628574,6.28571429 C15.632381,6.13333257 15.5333344,6.05714286 15.3657145,6.05714286 C14.9923793,6.05714286 14.5161936,6.45332937 13.9371431,7.24571429 C13.2590445,8.18286183 12.7828588,9.03618663 12.5085717,9.80571429 C12.2190464,10.6285755 12.0819049,11.573328 12.0971431,12.64 C12.0971431,12.6780954 12.1238095,13.2990416 12.1771431,14.5028571 C12.1771431,14.6476198 12.1028581,14.7828565 11.954286,14.9085714 C11.8057138,15.0342863 11.6590486,15.0971429 11.514286,15.0971429 C11.0876172,15.0971429 10.9009524,14.7657176 10.954286,14.1028571 C11.0914295,12.5638018 11.1600002,11.2838146 11.1600002,10.2628571 C11.1600002,9.21142331 11.0914295,8.0152448 10.954286,6.67428571 C10.9390478,6.521904 11.003809,6.36571509 11.1485717,6.20571429 C11.2933343,6.04571349 11.4419042,5.96571429 11.594286,5.96571429 C11.8457158,5.96571429 12.0285711,6.09142731 12.1428574,6.34285714 C12.2266673,6.5257152 12.2571432,6.69714206 12.234286,6.85714286 C12.1352378,7.65714686 12.089524,8.32761634 12.0971431,8.86857143 L12.0971431,8.86857143 Z M20.2457148,21.3371429 C19.1409473,21.3371429 18.150481,20.8685761 17.2742862,19.9314286 C16.5047585,19.1238055 16.1200005,18.3885747 16.1200005,17.7257143 C16.1200005,17.4057127 16.249523,17.2457143 16.5085719,17.2457143 C16.6533345,17.2457143 16.7638096,17.3599989 16.8400005,17.5885714 C16.885715,17.7561913 16.9314288,17.9276182 16.9771433,18.1028571 C17.2057159,18.7352413 17.5638076,19.2571408 18.051429,19.6685714 C18.5619078,20.1028593 19.1333306,20.3466664 19.7657148,20.4 C21.38858,20.5371435 22.6723767,19.6419144 23.6171433,17.7142857 C24.3790519,16.1599922 24.7600005,14.4342952 24.7600005,12.5371429 C24.7600005,11.2342792 24.5733357,9.62286674 24.2000005,7.70285714 C23.5523782,9.37143691 23.0152407,10.6095198 22.5885719,11.4171429 C21.7199961,13.0552463 20.8742903,14.0076177 20.051429,14.2742857 C19.9066664,14.3200002 19.7695249,14.3428571 19.6400005,14.3428571 C18.9085682,14.3428571 18.5428576,13.7790533 18.5428576,12.6514286 C18.5428576,11.6152329 18.8133311,10.1561999 19.3542862,8.27428571 C19.9257176,6.29332343 20.4247602,5.28380971 20.851429,5.24571429 C21.0038108,5.23047611 21.1619044,5.28571366 21.3257148,5.41142857 C21.4895251,5.53714349 21.571429,5.66095177 21.571429,5.78285714 C21.571429,5.82095257 21.5638101,5.85523794 21.5485719,5.88571429 C21.0990458,6.58667017 20.6800024,7.46285189 20.291429,8.51428571 C19.750474,9.98476926 19.4800005,11.3333272 19.4800005,12.56 C19.4800005,13.2076223 19.5752376,13.5314286 19.7657148,13.5314286 C20.0019064,13.5314286 20.3866645,13.1276231 20.9200005,12.32 C21.1790494,11.9314266 21.4380944,11.4971453 21.6971433,11.0171429 C22.7790535,9.31808674 23.4076186,7.916196 23.5828576,6.81142857 C23.6438103,6.41523611 23.6552388,6.06476343 23.6171433,5.76 C23.5561906,5.24190217 23.7428554,4.98285714 24.1771433,4.98285714 C24.588574,4.98285714 24.8361905,5.3676152 24.9200005,6.13714286 L24.931429,6.28571429 C25.1142871,7.9847704 25.3238088,9.03618846 25.5600005,9.44 C25.6895249,9.66095349 25.7542862,10.7123715 25.7542862,12.5942857 C25.7542862,14.3238182 25.3771471,16.0495152 24.6228576,17.7714286 C23.586662,20.1485833 22.1276289,21.3371429 20.2457148,21.3371429 L20.2457148,21.3371429 Z M29.5828576,33.3771429 C28.9276162,33.3771429 28.3904788,32.9009571 27.971429,31.9485714 C27.6438084,31.2095201 27.4800005,30.5352411 27.4800005,29.9257143 C27.4800005,30.0704769 27.4876194,29.7009568 27.5028576,28.8171429 C27.5180958,28.2380923 27.5104768,27.788573 27.4800005,27.4685714 C27.441905,27.0266645 27.3657153,26.8057143 27.251429,26.8057143 C27.2285718,26.8057143 27.034288,27.0952352 26.6685719,27.6742857 C25.4266609,29.6095335 24.7561914,30.6457136 24.6571433,30.7828571 C23.6209477,32.2152453 22.8095272,32.9314286 22.2228576,32.9314286 C21.636188,32.9314286 21.3161912,32.2952445 21.2628576,31.0228571 C21.2476194,30.6723792 21.2819048,29.5638189 21.3657148,27.6971429 C21.3809529,27.2780931 21.3466676,27.0685714 21.2628576,27.0685714 C21.0190469,27.0685714 20.3790533,28.0095144 19.3428576,29.8914286 C18.2838047,31.8038191 17.7200008,33.1104727 17.651429,33.8114286 C17.6285718,34.0933347 17.4533354,34.2342857 17.1257148,34.2342857 C16.973333,34.2342857 16.8361916,33.9904786 16.7142862,33.5028571 C16.6304762,33.1295219 16.5885719,32.8514295 16.5885719,32.6685714 C16.5885719,31.2742787 16.6190478,30.0742907 16.6800005,29.0685714 C16.7409532,28.139043 16.8590472,27.3504794 17.0342862,26.7028571 C17.2171442,26.0019013 17.426666,25.6514286 17.6628576,25.6514286 C17.8304775,25.6514286 17.9847617,25.7123803 18.1257148,25.8342857 C18.2666678,25.9561911 18.3219054,26.0742851 18.291429,26.1885714 C17.841903,27.8114367 17.6095244,29.4799914 17.5942862,31.1942857 C18.4171474,29.7161831 18.9885703,28.7295263 19.3085719,28.2342857 C20.2381004,26.8095167 20.9657121,26.0971429 21.491429,26.0971429 C22.1238132,26.0971429 22.4247625,26.8476115 22.3942862,28.3485714 C22.3866671,28.5085722 22.3638102,28.8704734 22.3257148,29.4342857 C22.2876193,29.9523835 22.2685719,30.363808 22.2685719,30.6685714 C22.2685719,31.255241 22.3257142,31.7009509 22.4400005,32.0057143 C22.7142876,31.9219043 23.1904733,31.4266712 23.8685719,30.52 C24.4247652,29.7580914 24.8971414,29.0495271 25.2857148,28.3942857 C26.2914341,26.6571342 27.0228553,25.7885714 27.4800005,25.7885714 C27.9371456,25.7885714 28.2266665,26.2266623 28.3485719,27.1028571 C28.3866673,27.6438122 28.4438096,28.4742801 28.5200005,29.5942857 C28.657144,31.6285816 29.0152357,32.6533333 29.5942862,32.6685714 C29.8152397,32.6761905 30.0114282,32.5638107 30.1828576,32.3314286 C30.354287,32.0990465 30.4933333,31.9828571 30.6000005,31.9828571 C30.8133349,31.9828571 30.9200005,32.0971417 30.9200005,32.3257143 C30.9200005,32.6380968 30.7295262,32.9047608 30.3485719,33.1257143 C30.0514276,33.2933342 29.796192,33.3771429 29.5828576,33.3771429 L29.5828576,33.3771429 Z M34.3142864,29.6742857 C34.1771429,29.7961911 34.0304777,30.1657112 33.8742864,30.7828571 C33.7180952,31.4000031 33.6400007,31.9371406 33.6400007,32.3942857 C33.6400007,32.9885744 34.0323777,33.2857143 34.8171436,33.2857143 C35.5714331,33.2857143 36.4552337,32.8476234 37.4685721,31.9714286 C38.4514342,31.118091 39.1333321,30.2380998 39.5142864,29.3314286 L39.8800007,29.3314286 C40.0247633,29.4685721 40.0742867,29.5980946 40.0285721,29.72 C39.5866652,31.0000064 38.8476249,32.0628529 37.8114293,32.9085714 C36.8285672,33.7238136 35.8419104,34.1314286 34.8514293,34.1314286 C34.1199971,34.1314286 33.5676216,33.8800025 33.1942864,33.3771429 C32.8285703,32.8971405 32.6685719,32.2495279 32.7142864,31.4342857 C32.7752391,30.2914229 33.3847568,28.8742942 34.5428579,27.1828571 C35.7847688,25.3695147 36.9161861,24.4628571 37.9371436,24.4628571 C38.2800024,24.4628571 38.5428569,24.6228555 38.725715,24.9428571 C38.8628585,25.1790488 38.9314293,25.4266654 38.9314293,25.6857143 C38.9314293,26.4323847 38.615242,27.289519 37.9828579,28.2571429 C37.2361875,29.422863 36.3790532,30.0057143 35.4114293,30.0057143 C34.9542841,30.0057143 34.6038115,29.9066677 34.3600007,29.7085714 L34.3142864,29.6742857 Z M37.8000007,25.2628571 C37.5104755,25.3314289 37.2476209,25.5066653 37.0114293,25.7885714 C35.4266595,27.6476283 34.6342864,28.7295223 34.6342864,29.0342857 C34.6342864,29.1180957 34.8095228,29.1714285 35.1600007,29.1942857 C35.7542894,29.2247621 36.401902,28.7980997 37.1028579,27.9142857 C37.7885756,27.053329 38.1314293,26.2838129 38.1314293,25.6057143 C38.1314293,25.316189 38.0209542,25.2019045 37.8000007,25.2628571 L37.8000007,25.2628571 Z" id="try-me" fill="#FFFFFF"></path>
      </g>
    </g>
  </g>
</svg>
