<svg width="28px" height="22px" viewBox="0 0 28 22">
  <g id="Page-1" stroke="none" stroke-width="1" fill="none" fill-rule="evenodd">
    <g id="Sprawsm-Discussion" transform="translate(-1003.000000, -42.000000)" fill="#FFFFFF">
      <path d="M1030.52542,46.7530864 L1026.25424,42.4753086 C1026.00079,42.1639893 1025.60609,42 1025.23729,42 L1008.83051,42 C1008.39314,42 1008.00081,42.1639893 1007.74576,42.4753086 L1003.47458,46.7530864 C1002.88367,47.2892003 1002.84763,48.1925014 1003.33898,48.7901235 L1015.81356,63.4567901 C1016.13603,63.80324 1016.56277,64 1017.0339,64 C1017.4596,64 1017.88504,63.8019482 1018.18644,63.4567901 L1020.76271,60.4012346 C1021.31161,59.7701355 1021.23322,58.8019049 1020.55932,58.2283951 C1019.94746,57.7046313 1018.98147,57.7815268 1018.45763,58.4320988 L1017.0339,60.1296296 L1006.59322,47.9074074 L1009.44068,45.0555556 L1024.55932,45.0555556 L1027.40678,47.9074074 L1023.33898,52.6604938 C1023.23415,52.7621067 1023.18359,52.772373 1023.13559,52.7962963 L1022.59322,52.7962963 C1022.55183,52.772373 1022.50589,52.7635344 1022.45763,52.6604938 C1022.35306,52.600293 1022.28384,52.4596238 1022.25424,52.2530864 L1022.25424,46.9567901 C1022.2854,46.134272 1021.59901,45.4478556 1020.76271,45.462963 C1020.28271,45.4478556 1019.86554,45.6681398 1019.61017,46.0061728 C1018.94747,45.6930917 1018.23536,45.512989 1017.50847,45.5308642 L1016.49153,45.5308642 C1013.86731,45.512989 1011.71783,47.6684426 1011.74576,50.3518519 L1011.74576,51.0308642 C1011.71783,53.6847847 1013.86731,55.8389465 1016.49153,55.8518519 L1017.50847,55.8518519 C1018.5434,55.8401024 1019.52316,55.4896193 1020.28814,54.9012346 C1020.90062,55.4675229 1021.70766,55.8412582 1022.59322,55.8518519 L1023.13559,55.8518519 C1024.14503,55.8412582 1025.04559,55.3645197 1025.64407,54.6975309 L1030.66102,48.7901235 C1031.15193,48.1925014 1031.11589,47.2892003 1030.52542,46.7530864 Z M1017.50847,52.7962963 L1016.55932,52.7962963 C1015.58426,52.7949315 1014.79914,52.0103863 1014.79661,51.0308642 L1014.79661,50.3518519 C1014.79914,49.3707603 1015.58426,48.5864198 1016.55932,48.5864198 L1017.50847,48.5864198 C1018.48408,48.5864198 1019.26887,49.3720568 1019.27119,50.3518519 L1019.27119,51.0308642 C1019.26887,52.0103863 1018.48408,52.7949315 1017.50847,52.7962963 Z" id="sprawsm_logo_mark"></path>
    </g>
  </g>
</svg>
