<svg width="60px" height="60px" viewBox="0 0 60 60">
  <g id="Page-1" stroke="none" stroke-width="1" fill="none" fill-rule="evenodd">
    <g id="Sprawsm-Discussion" transform="translate(-102.000000, -255.000000)" fill="#FFFFFF">
      <g id="hero-content" transform="translate(102.000000, 255.000000)">
        <path d="M6.06744505,41.7976649 C4.00309438,37.8453207 2.83592468,33.3500197 2.83592468,28.5820376 C2.83592468,12.7931434 15.6325388,0 31.4179624,0 C47.2068567,0 60,12.7966141 60,28.5820376 C60,44.3709319 47.2033858,57.1640754 31.4179624,57.1640754 C26.6494837,57.1640754 22.1542562,55.9968592 18.2021747,53.9326084 L0,60 L6.06744505,41.7976649 L6.06744505,41.7976649 Z M18.4015585,18.4015585 L18.4015585,22.5394895 L45.5551252,22.5394895 L45.5551252,18.4015585 L18.4015585,18.4015585 L18.4015585,18.4015585 Z M18.4015585,26.6774206 L18.4015585,30.8153516 L45.5551252,30.8153516 L45.5551252,26.6774206 L18.4015585,26.6774206 L18.4015585,26.6774206 Z M18.4015585,34.9532826 L18.4015585,39.0912137 L33.1034483,39.0912137 L33.1034483,34.9532826 L18.4015585,34.9532826 L18.4015585,34.9532826 Z" id="bar"></path>
      </g>
    </g>
  </g>
</svg>
